<svg width="24" height="22" fill="none" xmlns="http://www.w3.org/2000/svg"><path d="M16.56 9.148 7.62 0 6.205 1.448l2.38 2.435L3.44 9.148c-.28.288-.439.678-.439 1.085 0 .406.158.796.439 1.084l5.5 5.628c.281.288.662.449 1.06.449s.779-.161 1.06-.449l5.5-5.628c.28-.288.439-.678.439-1.084 0-.407-.158-.797-.439-1.085ZM5.205 10.233 10 5.33l4.795 4.902h-9.59ZM19 11.767s-2 2.216-2 3.582c0 .543.21 1.063.586 1.447.375.384.884.6 1.414.6.53 0 1.04-.216 1.414-.6A2.07 2.07 0 0 0 21 15.349c0-1.366-2-3.582-2-3.582ZM24 20.465H0V22h24v-1.535Z" fill="#D22856"/></svg>